# xmcd CD database file
#
# Track frame offsets:
#	187
#	24522
#	41495
#	65787
#
# Disc length: 1103 seconds
#
# Revision: 0
# Processed by: cddbd v1.5.1PL0 Copyright (c) Steve Scherf et al.
# Submitted via: CDex 1.51
#
DISCID=30044d04
DTITLE=KUMI SHOWJI - MISTY RAINY DAY
DYEAR=1900
DGENRE=JPop
TTITLE0=MISTY RAINY DAY
TTITLE1=LABYRINTH
TTITLE2=MISTY RAINY DAY (オリジナルカラオケ）
TTITLE3=LABYRINTH （オリジナルカラオケ）
EXTD=
EXTT0=
EXTT1=
EXTT2=
EXTT3=
PLAYORDER=
